<svg width="191" height="173" viewBox="0 0 191 173" fill="none" xmlns="http://www.w3.org/2000/svg">
<g clip-path="url(#clip0_26_568)">
<path d="M22.4005 58.677L16.0553 114.698H8.87537L2.53027 58.677H9.04235L12.2149 102.091V102.425V102.926C12.1314 103.093 12.1314 103.26 12.2149 103.51C12.2984 103.761 12.3819 103.844 12.4654 103.844C12.5488 103.844 12.6323 103.761 12.7158 103.51C12.7993 103.26 12.7993 103.093 12.7158 102.926C12.6323 102.842 12.6323 102.842 12.7158 102.759C12.7158 102.675 12.7158 102.592 12.7158 102.508V102.174L15.8884 58.7605L22.4005 58.677Z" fill="black"/>
<path d="M41.6864 109.605C42.1038 109.521 42.4378 109.271 42.6883 109.02C43.1057 108.603 43.3562 108.269 43.5231 107.935C43.6901 107.601 43.7736 107.017 43.7736 106.098L43.8571 103.26H49.6178V105.848C49.5343 106.265 49.5343 106.683 49.5343 107.017C49.4508 107.351 49.4508 107.684 49.4508 108.102C49.4508 108.519 49.3673 108.853 49.2839 109.187C49.1169 109.855 48.8664 110.607 48.449 111.274C48.0315 111.942 47.6976 112.527 47.2801 112.861C46.9462 113.195 46.2783 113.696 45.3599 114.28C44.4415 114.864 43.1892 115.198 41.6864 115.198H36.7606C35.1743 115.198 34.0055 114.864 33.0871 114.28C32.1687 113.696 31.5008 113.195 31.1669 112.861C30.8329 112.527 30.4155 111.942 29.998 111.274C29.5806 110.607 29.3301 109.855 29.1631 109.187C29.0797 108.853 28.9962 108.519 28.9127 108.102C28.8292 107.684 28.8292 107.351 28.8292 107.017C28.7457 106.683 28.7457 106.265 28.8292 105.848V67.4431C28.7457 67.0257 28.7457 66.6082 28.8292 66.2743C28.8292 65.9403 28.8292 65.6064 28.9127 65.2724C28.9962 64.9385 29.0797 64.521 29.1631 64.1871C29.3301 63.5192 29.5806 62.7678 29.998 62.0999C30.4155 61.4319 30.7494 60.8475 31.1669 60.5136C31.5008 60.1796 32.1687 59.6787 33.0871 59.0943C34.0055 58.5099 35.2578 58.1759 36.7606 58.1759H41.4359C43.0222 58.1759 44.1911 58.5099 45.1094 59.0943C46.0278 59.6787 46.6957 60.1796 47.0297 60.5136C47.3636 60.8475 47.781 61.4319 48.1985 62.0999C48.6159 62.7678 48.8664 63.5192 49.0333 64.1871C49.1168 64.521 49.2003 64.9385 49.2003 65.2724C49.2003 65.6064 49.2004 66.0238 49.2839 66.2743C49.2839 66.6082 49.2838 67.0257 49.3673 67.4431V69.8643H43.6066V63.6026H38.0129C37.5955 63.6861 37.178 63.7696 36.7606 63.8531C36.3432 63.9366 36.0927 64.1036 35.8422 64.354C35.4248 64.7715 35.1743 65.1054 35.0073 65.4394C34.8403 65.7733 34.7569 66.3578 34.7569 67.2761L34.6734 71.2836V102.341L34.7569 106.349C34.8404 107.267 34.9238 107.851 35.0073 108.185C35.1743 108.519 35.4248 108.853 35.8422 109.271C36.0927 109.521 36.5101 109.688 37.0111 109.855C37.512 109.939 38.0129 110.022 38.4304 110.022H40.5176C40.935 109.772 41.2689 109.772 41.6864 109.605Z" fill="black"/>
<path d="M67.8187 109.605C68.2362 109.521 68.5701 109.271 68.8206 109.02C69.2381 108.603 69.4885 108.269 69.6555 107.935C69.8225 107.601 69.9059 107.017 69.9059 106.098L69.9895 103.26H75.7501V105.848C75.6666 106.265 75.6667 106.683 75.6667 107.017C75.6667 107.434 75.6667 107.768 75.6667 108.186C75.6667 108.603 75.5832 108.937 75.4997 109.271C75.3327 109.939 75.0822 110.69 74.6648 111.358C74.2474 112.026 73.9134 112.61 73.496 112.944C73.162 113.278 72.4941 113.779 71.5757 114.364C70.6573 114.948 69.405 115.282 67.9023 115.282H62.9764C61.3902 115.282 60.2213 114.948 59.303 114.364C58.3846 113.779 57.7167 113.278 57.3827 112.944C57.0487 112.61 56.6313 112.026 56.2139 111.358C55.7965 110.69 55.546 109.939 55.379 109.271C55.2955 108.937 55.212 108.603 55.1286 108.186C55.0451 107.768 55.045 107.434 55.045 107.1C54.9615 106.766 54.9615 106.349 55.045 105.931V67.5267C54.9615 67.1093 54.9615 66.6918 55.045 66.3579C55.045 66.0239 55.0451 65.69 55.1286 65.356C55.212 65.0221 55.2955 64.6046 55.379 64.2707C55.546 63.6028 55.7965 62.8514 56.2139 62.1835C56.6313 61.5156 56.9653 60.9312 57.3827 60.5972C57.7167 60.2632 58.3846 59.7623 59.303 59.1779C60.2213 58.5935 61.4736 58.2595 62.9764 58.2595H67.6518C69.2381 58.2595 70.4069 58.5935 71.3253 59.1779C72.2436 59.7623 72.9115 60.2632 73.2455 60.5972C73.5794 60.9312 73.9969 61.5156 74.4143 62.1835C74.8318 62.8514 75.0822 63.6028 75.2492 64.2707C75.3327 64.6046 75.4162 65.0221 75.4162 65.356C75.4162 65.69 75.4162 66.1074 75.4997 66.3579C75.4997 66.6918 75.4997 67.1093 75.5832 67.5267V69.8644H69.8225V63.6028H64.2288C63.8113 63.6863 63.3939 63.7698 62.9764 63.8532C62.559 63.9367 62.3085 64.1037 62.0581 64.3542C61.6406 64.7716 61.3902 65.1056 61.2232 65.4395C61.0562 65.7735 60.9727 66.3579 60.9727 67.2763L60.8892 71.2837V102.341L60.9727 106.349C61.0562 107.267 61.1397 107.852 61.2232 108.186C61.3902 108.519 61.6406 108.853 62.0581 109.271C62.3085 109.521 62.726 109.688 63.2269 109.855C63.7278 109.939 64.2288 110.022 64.6462 110.022H66.7334C67.0674 109.772 67.4848 109.772 67.8187 109.605Z" fill="black"/>
<path d="M134.191 109.605C134.609 109.521 134.943 109.271 135.193 109.02C135.611 108.603 135.861 108.269 136.028 107.935C136.195 107.601 136.279 107.017 136.279 106.098L136.362 103.26H142.123V105.848C142.039 106.265 142.039 106.683 142.039 107.017C141.956 107.351 141.956 107.684 141.956 108.102C141.956 108.519 141.872 108.853 141.789 109.187C141.622 109.855 141.371 110.607 140.954 111.274C140.536 111.942 140.202 112.527 139.785 112.861C139.451 113.195 138.783 113.696 137.865 114.28C136.946 114.864 135.694 115.198 134.191 115.198H129.265C127.679 115.198 126.51 114.864 125.592 114.28C124.674 113.696 124.006 113.195 123.672 112.861C123.338 112.527 122.92 111.942 122.503 111.274C122.085 110.607 121.835 109.855 121.668 109.187C121.585 108.853 121.501 108.519 121.418 108.102C121.334 107.684 121.334 107.351 121.334 107.017C121.251 106.683 121.251 106.265 121.334 105.848V67.4431C121.251 67.0257 121.251 66.6082 121.334 66.2743C121.334 65.9403 121.334 65.6064 121.418 65.2724C121.501 64.9385 121.585 64.521 121.668 64.1871C121.835 63.5192 122.085 62.7678 122.503 62.0999C122.92 61.4319 123.254 60.8475 123.672 60.5136C124.006 60.1796 124.674 59.6787 125.592 59.0943C126.51 58.5099 127.763 58.1759 129.265 58.1759H133.941C135.527 58.1759 136.696 58.5099 137.614 59.0943C138.533 59.6787 139.201 60.1796 139.535 60.5136C139.868 60.8475 140.286 61.4319 140.703 62.0999C141.121 62.7678 141.371 63.5192 141.538 64.1871C141.622 64.521 141.622 64.855 141.622 65.2724C141.622 65.6064 141.622 66.0238 141.705 66.2743C141.705 66.6082 141.705 67.0257 141.789 67.4431V69.8643H136.028V63.6026H130.434C130.017 63.6861 129.599 63.7696 129.182 63.8531C128.765 63.9366 128.514 64.1036 128.264 64.354C127.846 64.7715 127.596 65.1054 127.429 65.4394C127.262 65.7733 127.178 66.3578 127.178 67.2761L127.095 71.2836V102.341L127.178 106.349C127.262 107.267 127.345 107.851 127.429 108.185C127.596 108.519 127.846 108.853 128.264 109.271C128.514 109.521 128.932 109.688 129.432 109.855C129.933 109.939 130.434 110.022 130.852 110.022H132.939C133.356 109.772 133.774 109.772 134.191 109.605Z" fill="black"/>
<path d="M146.965 58.677H152.642V109.187H165.082V114.698H146.965V58.677Z" fill="black"/>
<path d="M169.925 58.677H187.624V64.1037H175.685V78.7142H183.45V84.1409H175.685V109.271H188.376V114.698H169.925V58.677Z" fill="black"/>
<path d="M87.4387 62.601C87.4387 64.7717 85.6855 66.5249 83.5148 66.5249C81.3441 66.5249 79.5908 64.7717 79.5908 62.601C79.5908 60.4303 81.3441 58.677 83.5148 58.677C85.6855 58.677 87.4387 60.4303 87.4387 62.601Z" fill="black"/>
<path d="M83.5139 70.2817C82.4285 70.2817 81.4267 69.9477 80.5918 69.3633V114.697H86.3525V69.3633C85.5176 69.9477 84.5992 70.2817 83.5139 70.2817Z" fill="black"/>
<path d="M106.891 78.5472C106.891 82.9721 102.549 82.8051 102.549 82.8051H98.208V64.1037H103.551C106.807 64.1037 106.807 67.1093 106.807 67.1093L106.891 78.5472ZM113.069 110.523V91.6549C113.069 91.6549 112.568 85.5602 106.891 85.5602C106.891 85.5602 112.651 86.0612 112.651 81.3023V64.1872C112.651 64.1872 112.818 58.677 105.722 58.677C98.6254 58.677 92.4473 58.677 92.4473 58.677V114.698H98.208V89.4842H104.887C104.887 89.4842 107.225 89.2337 107.225 93.2412V111.609C107.225 111.609 107.225 114.948 111.065 114.948H115.49V114.614C115.574 114.614 113.069 113.278 113.069 110.523Z" fill="black"/>
</g>
<defs>
<clipPath id="clip0_26_568">
<rect width="186.179" height="58.8593" fill="white" transform="translate(2.19629 56.9764)"/>
</clipPath>
</defs>
</svg>
